<?xml version="1.0"?>
<svg xmlns="http://www.w3.org/2000/svg" xmlns:xlink="http://www.w3.org/1999/xlink" version="1.1" id="Capa_1" x="0px" y="0px" width="512px" height="512px" viewBox="0 0 25.532 25.532" style="enable-background:new 0 0 25.532 25.532;" xml:space="preserve"><g><g>
	<path d="M12.766,25.532C5.727,25.532,0,19.805,0,12.766C0,5.727,5.727,0,12.766,0c7.039,0,12.766,5.727,12.766,12.766   C25.532,19.805,19.805,25.532,12.766,25.532z M12.766,2C6.829,2,2,6.829,2,12.766c0,5.938,4.83,10.767,10.766,10.767   s10.766-4.829,10.766-10.767C23.532,6.829,18.703,2,12.766,2z M19.414,8.766c0,0.368-0.298,0.667-0.667,0.667H6.783   c-0.368,0-0.667-0.298-0.667-0.667c0-0.368,0.298-0.667,0.667-0.667h11.964C19.116,8.099,19.414,8.398,19.414,8.766z    M19.414,12.766c0,0.368-0.298,0.668-0.667,0.668H6.783c-0.368,0-0.667-0.299-0.667-0.668c0-0.367,0.298-0.666,0.667-0.666h11.964   C19.116,12.1,19.414,12.398,19.414,12.766z M19.414,16.766c0,0.368-0.298,0.668-0.667,0.668H6.783   c-0.368,0-0.667-0.299-0.667-0.668c0-0.367,0.298-0.666,0.667-0.666h11.964C19.116,16.1,19.414,16.398,19.414,16.766z" data-original="#000000" class="active-path" data-old_color="#000000" fill="#800000"/>
</g></g> </svg>
